<svg xmlns="http://www.w3.org/2000/svg" viewBox="0 0 48 48" width="48px" height="48px">
  <path fill="#181717" d="M24 4C12.95 4 4 12.95 4 24c0 8.84 5.73 16.34 13.67 18.99 1 .18 1.36-.43 1.36-.96 0-.48-.02-2.05-.03-3.73-5.56 1.21-6.73-2.68-6.73-2.68-.91-2.32-2.22-2.94-2.22-2.94-1.82-1.25.14-1.23.14-1.23 2.01.14 3.07 2.06 3.07 2.06 1.79 3.06 4.7 2.18 5.85 1.67.18-1.3.7-2.18 1.27-2.68-4.44-.51-9.11-2.22-9.11-9.89 0-2.18.78-3.96 2.06-5.36-.21-.51-.9-2.56.2-5.33 0 0 1.68-.54 5.5 2.05a18.9 18.9 0 015.01-.67c1.7 0 3.42.23 5.01.67 3.82-2.59 5.5-2.05 5.5-2.05 1.1 2.77.41 4.82.2 5.33 1.28 1.4 2.06 3.18 2.06 5.36 0 7.69-4.68 9.37-9.14 9.87.72.62 1.36 1.85 1.36 3.72 0 2.69-.02 4.86-.02 5.52 0 .53.36 1.15 1.37.95C38.28 40.33 44 32.83 44 24 44 12.95 35.05 4 24 4z"/>
</svg>
